<?xml version="1.0" encoding="UTF-8" standalone="no"?>
<!-- Created with Inkscape (http://www.inkscape.org/) -->

<svg
   width="40.085888mm"
   height="37.534969mm"
   viewBox="0 0 40.085888 37.534969"
   version="1.1"
   id="svg1"
   xml:space="preserve"
   inkscape:version="1.4.2 (f4327f4, 2025-05-13)"
   sodipodi:docname="logo pythonES square.svg"
   xmlns:inkscape="http://www.inkscape.org/namespaces/inkscape"
   xmlns:sodipodi="http://sodipodi.sourceforge.net/DTD/sodipodi-0.dtd"
   xmlns="http://www.w3.org/2000/svg"
   xmlns:svg="http://www.w3.org/2000/svg"><sodipodi:namedview
     id="namedview1"
     pagecolor="#ffffff"
     bordercolor="#666666"
     borderopacity="1.0"
     inkscape:showpageshadow="2"
     inkscape:pageopacity="0.0"
     inkscape:pagecheckerboard="0"
     inkscape:deskcolor="#d1d1d1"
     inkscape:document-units="mm"
     inkscape:zoom="2.9041807"
     inkscape:cx="70.76006"
     inkscape:cy="89.52611"
     inkscape:window-width="933"
     inkscape:window-height="1040"
     inkscape:window-x="259"
     inkscape:window-y="173"
     inkscape:window-maximized="0"
     inkscape:current-layer="layer1" /><defs
     id="defs1" /><g
     inkscape:label="Layer 1"
     inkscape:groupmode="layer"
     id="layer1"
     transform="translate(-58.306747,-128.63927)"><rect
       style="fill:#ffffff;fill-opacity:1;stroke:none;stroke-width:0.165;stroke-dasharray:0.329999, 0.165"
       id="rect1"
       width="40.085888"
       height="37.534969"
       x="58.306747"
       y="128.63927" /><g
       id="g1"
       transform="matrix(0.26458333,0,0,0.26458333,63.023704,131.22728)"><path
         id="XMLID_47_"
         class="st0"
         d="m 67.5,101.4 c 0,-2.7 2.2,-4.8 4.8,-4.8 2.7,0 4.8,2.2 4.8,4.8 0,2.7 -2.2,4.9 -4.8,4.9 -2.6,0 -4.8,-2.2 -4.8,-4.9 M 83.6,99.8 V 90.1 H 57.8 v -3.2 h 38.7 c 7.5,0 10.3,-5.2 12.9,-13 2.7,-8 2.6,-15.7 0,-26 -1.8,-7.4 -5.4,-13 -12.9,-13 h -9.7 v 11.3 c 0,8.8 -7.5,16.2 -16.1,16.2 H 44.9 c -7.1,0 -12.9,6 -12.9,13 v 24.3 c 0,6.9 6.1,11 12.9,13 8.2,2.4 16,2.8 25.8,0 6.5,-1.8 12.9,-5.5 12.9,-12.9 z" /><path
         id="XMLID_44_"
         class="st1"
         d="m 38.5,20.3 c 0,-2.7 2.2,-4.9 4.8,-4.9 2.7,0 4.8,2.2 4.8,4.9 0,2.7 -2.2,4.9 -4.8,4.9 -2.7,0 -4.8,-2.2 -4.8,-4.9 M 32,22 v 9.7 h 25.8 v 3.2 H 22.4 c -7.5,0 -14.1,4.5 -16.1,13 -2.4,9.7 -2.5,15.8 0,26 1.8,7.6 6.2,13 13.7,13 h 8.9 V 75.2 c 0,-8.5 7.4,-15.9 16.1,-15.9 h 25.8 c 7.2,0 12.9,-5.9 12.9,-13 V 22 C 83.7,15.1 77.8,9.9 70.8,8.7 61.9,7.2 52.4,7.4 45,8.7 34,10.6 32,14.6 32,22 Z" /></g></g><style
     type="text/css"
     id="style2">
	.st0{fill:#FFCC12;}
	.st1{fill:#E60000;}
	.st2{fill:#ABABAB;}
</style></svg>
