<svg width="80" height="80" viewBox="0 0 80 80" fill="none" xmlns="http://www.w3.org/2000/svg">
<mask id="mask0_11_49" style="mask-type:alpha" maskUnits="userSpaceOnUse" x="0" y="0" width="80" height="80">
<circle cx="40" cy="40" r="40" fill="white"/>
</mask>
<g mask="url(#mask0_11_49)">
<circle cx="40" cy="40" r="40" fill="white"/>
<path d="M63.3037 16.4592L68.0359 28.2195L73.0055 39.8815L68.0359 51.5435L63.3037 63.3038L51.5433 68.036L39.8813 73.0056L28.2194 68.036L16.459 63.3038L11.7268 51.5435L6.75719 39.8815L11.7268 28.2195L16.459 16.4592L28.2194 11.727L39.8813 6.75734L51.5433 11.727L63.3037 16.4592Z" fill="#E35336"/>
<path d="M51.0883 28.9118L47.0566 40.0001L51.0883 51.0884L40 47.0566L28.9117 51.0884L32.9434 40.0001L28.9117 28.9118L40 32.9435L51.0883 28.9118Z" fill="white"/>
<path d="M39.93 46.3082L28.6455 51.2145L23.1287 66.2605L40.1807 73.2819L57.2328 66.2605L51.2144 51.2145L39.93 46.3082Z" fill="#F18500"/>
<path d="M46.3081 40.4315L51.2144 51.716L65.7588 57.7344L73.2818 40.1808L65.7588 22.6272L51.2144 28.6455L46.3081 40.4315Z" fill="#CF5C38"/>
<path d="M39.93 33.0502L51.2145 28.6454L57.7344 14.101L39.6792 6.07647L22.1256 13.5994L28.6455 29.1469L39.93 33.0502Z" fill="#E35336"/>
<path d="M33.0503 39.9299L29.147 28.6454L14.1011 22.1255L6.07658 40.1806L13.5996 57.7342L29.147 51.2143L33.0503 39.9299Z" fill="#E66B35"/>
<path d="M83.0413 51.1242L76.9228 67.0828L83.0413 83.0415L67.0827 76.9229L51.1241 83.0415L57.2426 67.0828L51.1241 51.1242L67.0827 57.2428L83.0413 51.1242Z" fill="white"/>
<path d="M28.8759 51.1242L22.7574 67.0828L28.8759 83.0415L12.9173 76.9229L-3.04135 83.0415L3.07724 67.0828L-3.04135 51.1242L12.9173 57.2428L28.8759 51.1242Z" fill="white"/>
<path d="M28.8759 -3.04136L22.7574 12.9173L28.8759 28.8759L12.9173 22.7573L-3.04135 28.8759L3.07724 12.9173L-3.04135 -3.04136L12.9173 3.07723L28.8759 -3.04136Z" fill="white"/>
<path d="M83.0413 -3.04136L76.9228 12.9173L83.0413 28.8759L67.0827 22.7573L51.1241 28.8759L57.2426 12.9173L51.1241 -3.04136L67.0827 3.07723L83.0413 -3.04136Z" fill="white"/>
</g>
</svg>
